HIERARCHY
ROOT Hips
{
	OFFSET -3.958830 18.904000 13.208200
	CHANNELS 6 Xposition Yposition Zposition Zrotation Yrotation Xrotation 
	JOINT LHipJoint
	{
		OFFSET 0.000000 0.000000 0.000000
		CHANNELS 3 Zrotation Yrotation Xrotation
		JOINT LeftUpLeg
		{
			OFFSET 1.800000 -1.400000 0.085000
			CHANNELS 3 Zrotation Yrotation Xrotation
			JOINT LeftLeg
			{
				OFFSET 2.215000 -6.000000 0.000000
				CHANNELS 3 Zrotation Yrotation Xrotation
				JOINT LeftFoot
				{
					OFFSET 2.500000 -6.900000 0.000000
					CHANNELS 3 Zrotation Yrotation Xrotation
					JOINT LeftToeBase
					{
						OFFSET 0.200000 -0.500000 1.950000
						CHANNELS 3 Zrotation Yrotation Xrotation
						End Site
						{
							OFFSET 0.000000 0.000000 0.000000
						}
					}
				}
			}
		}
	}
	JOINT RHipJoint
	{
		OFFSET 0.000000 0.000000 0.000000
		CHANNELS 3 Zrotation Yrotation Xrotation
		JOINT RightUpLeg
		{
			OFFSET -1.800000 -1.400000 0.085000
			CHANNELS 3 Zrotation Yrotation Xrotation
			JOINT RightLeg
			{
				OFFSET -2.215000 -6.000000 0.000000
				CHANNELS 3 Zrotation Yrotation Xrotation
				JOINT RightFoot
				{
					OFFSET -2.500000 -6.900000 0.000000
					CHANNELS 3 Zrotation Yrotation Xrotation
					JOINT RightToeBase
					{
						OFFSET -0.200000 -0.500000 1.950000
						CHANNELS 3 Zrotation Yrotation Xrotation
						End Site
						{
							OFFSET 0.000000 0.000000 0.000000
						}
					}
				}
			}
		}
	}
	JOINT LowerBack
	{
		OFFSET 0.000000 0.000000 0.000000
		CHANNELS 3 Zrotation Yrotation Xrotation
		JOINT Spine
		{
			OFFSET -0.087000 1.940000 -0.288900
			CHANNELS 3 Zrotation Yrotation Xrotation
			JOINT Spine1
			{
				OFFSET 0.000000 1.950000 0.060000
				CHANNELS 3 Zrotation Yrotation Xrotation
				JOINT Neck
				{
					OFFSET 0.000000 0.000000 0.000000
					CHANNELS 3 Zrotation Yrotation Xrotation
					JOINT Neck1
					{
						OFFSET 0.000000 1.600000 0.340000
						CHANNELS 3 Zrotation Yrotation Xrotation
						JOINT Head
						{
							OFFSET 0.000000 1.667000 -0.240000
							CHANNELS 3 Zrotation Yrotation Xrotation
							End Site
							{
								OFFSET 0.000000 0.000000 0.000000
							}
						}
					}
				}
				JOINT LeftShoulder
				{
					OFFSET 0.000000 0.000000 0.000000
					CHANNELS 3 Zrotation Yrotation Xrotation
					JOINT LeftArm
					{
						OFFSET 2.700000 1.550000 -0.730000
						CHANNELS 3 Zrotation Yrotation Xrotation
						JOINT LeftForeArm
						{
							OFFSET 5.450000 0.000000 0.000000
							CHANNELS 3 Zrotation Yrotation Xrotation
							JOINT LeftHand
							{
								OFFSET 3.450000 0.000000 0.000000
								CHANNELS 3 Zrotation Yrotation Xrotation
								JOINT LeftHandIndex1
								{
									OFFSET 0.750000 0.000000 0.000000
									CHANNELS 3 Zrotation Yrotation Xrotation
									End Site
									{
										OFFSET 0.000000 0.000000 0.000000
									}
								}
							}
						}
					}
				}
				JOINT RightShoulder
				{
					OFFSET 0.000000 0.000000 0.000000
					CHANNELS 3 Zrotation Yrotation Xrotation
					JOINT RightArm
					{
						OFFSET -2.700000 1.550000 -0.730000
						CHANNELS 3 Zrotation Yrotation Xrotation
						JOINT RightForeArm
						{
							OFFSET -5.450000 0.000000 0.000000
							CHANNELS 3 Zrotation Yrotation Xrotation
							JOINT RightHand
							{
								OFFSET -3.450000 0.000000 0.000000
								CHANNELS 3 Zrotation Yrotation Xrotation
								JOINT RightHandIndex1
								{
									OFFSET -0.750000 0.000000 0.000000
									CHANNELS 3 Zrotation Yrotation Xrotation
									End Site
									{
										OFFSET 0.000000 0.000000 0.000000
									}
								}
							}
						}
					}
				}
			}
		}
	}
}
MOTION
Frames: 13
Frame Time: 0.016667
-3.872740 16.075400 -1.447250 -6.793532 -15.320060 -13.481449 -15.210894 12.185697 3.407200 1.664072 -4.266565 -19.265423 -16.129671 13.589327 32.963748 0.613815 7.117705 2.041935 0.382950 0.227730 0.253070 18.158249 -9.347170 4.920772 -18.871799 10.745691 -20.141488 47.456200 -35.860808 49.060351 -2.606674 -12.304688 0.362485 0.012420 -0.127480 0.011630 -3.268660 -1.833449 -9.622683 10.962038 -0.138070 23.614379 -5.139847 3.859166 10.491035 4.788380 -1.332845 -24.039693 -4.052675 -13.431700 40.775164 5.792070 -17.766390 -17.319160 -20.426985 -30.101544 7.798600 -23.493968 -5.436756 -11.908071 53.944681 0.674713 -4.105505 -3.588843 3.392375 0.447830 -0.318870 0.184760 0.133640 11.114898 38.834103 17.035706 12.743697 18.775178 -13.805336 -36.725501 -8.388482 -2.208228 3.344824 -1.833241 0.035200 0.144660 -0.147740 -0.006880 
-3.897390 16.069620 -1.398880 -7.333522 -15.338031 -13.305160 -15.235422 12.085007 3.340198 2.456104 -4.299954 -19.427602 -16.163649 13.959568 33.794912 0.614676 7.353002 1.962552 0.390140 0.238390 0.250110 18.172861 -9.138197 5.111429 -20.736073 10.691897 -23.036300 51.790133 -37.291476 47.227468 -2.626663 -12.319709 0.351338 0.041020 -0.101820 0.014260 -3.280885 -1.902916 -9.651260 11.392220 -0.625181 23.722390 -5.021713 3.322404 11.473002 5.066379 -1.331571 -23.884672 -3.560838 -13.636911 38.871901 5.498150 -17.500800 -17.375150 -20.139323 -30.225341 7.708291 -23.916922 -5.576219 -12.155247 54.474346 2.162585 -3.620678 -3.638027 3.416323 0.434910 -0.295290 0.163600 0.137600 10.183393 39.048769 16.797836 11.369079 18.833771 -13.135168 -34.148513 -9.625945 -1.767206 3.387589 -1.796941 0.018270 0.159930 -0.138680 -0.009020 
-3.913980 16.084190 -1.347200 -7.544090 -15.444189 -13.436565 -15.247024 12.078353 3.311900 3.016047 -4.262585 -19.178968 -16.406986 14.282041 34.167348 0.665360 7.491988 1.918050 0.397070 0.236670 0.256260 18.177309 -8.970795 5.269694 -22.455896 10.507178 -25.205515 55.040938 -38.060877 45.584886 -2.636489 -12.250279 0.374914 0.028980 -0.112350 0.019390 -3.276381 -2.092268 -9.725586 11.851094 -1.058909 24.304943 -5.214127 3.091032 11.252407 5.198484 -1.572465 -24.268621 -4.189789 -13.138531 39.478514 5.781490 -17.430280 -17.036400 -20.522727 -30.400536 7.835956 -24.344058 -5.006322 -12.317789 54.341542 2.194442 -3.600580 -3.629124 3.434597 0.439560 -0.304390 0.170620 0.143100 10.320015 39.418920 16.937879 11.619780 18.338235 -13.190300 -33.983866 -9.810076 -1.666624 3.414473 -1.799911 0.029870 0.142360 -0.150670 -0.007950 
-3.931060 16.076580 -1.298080 -7.711847 -15.519245 -13.042640 -15.252979 11.936138 3.255319 3.422138 -4.276479 -19.367232 -16.662628 14.577982 34.378617 0.683298 7.615924 1.886882 0.378900 0.212800 0.237070 18.217451 -8.786224 5.495968 -24.856136 10.214156 -28.402042 59.288339 -39.626420 44.092252 -2.650863 -12.278528 0.373562 0.024680 -0.086180 0.019540 -3.352846 -2.071292 -9.787097 12.360238 -1.306175 23.990221 -5.289745 2.874259 12.076885 5.292923 -1.940512 -24.464474 -4.586564 -13.366719 38.233098 5.469840 -17.737400 -16.187490 -19.551656 -30.579234 7.811204 -25.763917 -5.364032 -12.479606 54.234584 2.666797 -3.526442 -3.647235 3.455662 0.418730 -0.283450 0.143430 0.145490 9.241499 39.839539 17.140945 12.411883 18.131699 -13.595244 -34.510577 -10.381054 -1.685970 3.446801 -1.841793 0.019810 0.143530 -0.139240 -0.002670 
-3.947330 16.077890 -1.245270 -7.989607 -15.453687 -13.051411 -15.223023 11.832889 3.180433 4.097585 -4.083661 -18.751537 -17.338764 14.845923 33.908375 0.706040 7.698028 1.878713 0.354690 0.197980 0.185650 18.280191 -8.686420 5.662389 -26.975866 9.706755 -30.504167 63.090324 -41.081350 42.689517 -2.651661 -12.269065 0.393268 0.026520 -0.032900 0.009660 -3.506760 -2.009870 -9.798594 13.265254 -2.071119 23.632100 -5.811369 2.362589 13.157130 5.334293 -2.577123 -24.392645 -5.537815 -12.869673 37.475805 6.387700 -18.041640 -15.594330 -18.779391 -30.595841 7.780723 -26.513703 -5.447678 -12.627587 54.074423 3.447907 -3.301581 -3.678836 3.469799 0.387100 -0.257940 0.105120 0.158980 8.471446 40.089005 17.217912 12.315345 18.349658 -13.408981 -33.665915 -10.242693 -1.765206 3.443490 -1.838542 0.007980 0.165720 -0.118510 0.020620 
-3.953760 16.083250 -1.196600 -8.449367 -15.561003 -12.782714 -15.211793 11.783073 3.126745 4.564258 -4.022132 -18.652710 -17.241300 14.878137 33.970572 0.674951 7.728630 1.857954 0.352200 0.203760 0.179990 18.315864 -8.599611 5.789668 -28.389929 9.183842 -32.231935 67.036901 -41.861295 40.588554 -2.650278 -12.140878 0.432335 0.039680 -0.028270 0.007220 -3.585633 -2.001258 -9.810834 14.218748 -2.631794 23.528819 -6.290422 2.055604 13.287156 5.570789 -2.476494 -24.195140 -5.295552 -12.801594 37.070608 6.341750 -17.731440 -16.340430 -19.025334 -30.662476 7.793767 -27.171935 -5.361617 -12.809508 54.978399 4.379704 -2.936829 -3.699217 3.462325 0.396350 -0.253950 0.105040 0.150940 8.081114 40.071435 17.004401 12.869319 19.036098 -13.177337 -33.316026 -10.722192 -1.651791 3.432421 -1.818425 -0.003460 0.182770 -0.102870 0.014180 
-3.955620 16.094130 -1.155710 -8.996729 -15.265269 -12.639242 -15.187289 11.765528 3.094418 5.170004 -3.983091 -18.318274 -17.468289 14.889605 33.673103 0.693257 7.728630 1.856410 0.368170 0.216330 0.177990 18.353991 -8.539397 5.875391 -29.683900 8.520672 -33.328277 70.371730 -42.420933 38.692992 -2.647651 -12.025072 0.463871 0.037960 -0.032550 0.028820 -3.675812 -2.059340 -9.818363 15.388903 -3.571196 23.506888 -7.106552 1.624800 13.675469 5.800068 -2.731248 -24.515158 -5.774523 -12.475012 36.784964 6.431590 -17.700600 -16.047050 -19.274639 -30.861651 8.025591 -26.565872 -4.525109 -12.529473 53.163788 5.166357 -2.450384 -3.723448 3.504585 0.383370 -0.253160 0.106560 0.161820 7.785256 40.474262 17.025218 12.576405 19.322189 -12.666837 -31.903078 -11.574739 -1.344217 3.483530 -1.817425 0.020820 0.152150 -0.112710 0.024400 
-3.961510 16.100340 -1.109200 -9.680562 -15.096510 -12.252130 -15.145003 11.690785 3.075978 5.910976 -3.984363 -18.390106 -17.730151 15.085893 33.785795 0.713962 7.796818 1.822267 0.377550 0.238520 0.164140 18.415139 -8.514971 5.929331 -30.861579 7.797430 -34.185955 74.135986 -43.050888 36.560714 -2.640811 -11.880298 0.505663 0.046390 -0.042160 0.027820 -3.835340 -1.978399 -9.798909 17.134620 -4.220680 23.069917 -7.728018 1.445029 13.709517 5.864344 -3.271148 -24.228734 -6.832195 -12.324783 36.416281 6.806440 -17.959590 -16.574530 -19.128865 -30.672881 8.098451 -26.884659 -4.933712 -11.826575 50.896629 5.625031 -2.075457 -3.702124 3.515266 0.374280 -0.263790 0.108580 0.166430 7.548449 40.411717 16.768345 13.735039 19.479234 -13.159204 -33.356768 -11.521939 -1.514749 3.472010 -1.872090 0.035510 0.140670 -0.117110 0.036500 
-3.965410 16.105000 -1.071040 -10.170942 -15.127214 -11.557288 -15.119836 11.584805 3.050889 6.468252 -3.974669 -18.684461 -18.011661 15.196141 33.635854 0.734930 7.807161 1.811069 0.404590 0.269760 0.174370 18.467007 -8.492452 5.975170 -31.605614 7.351795 -35.306536 76.411435 -44.099973 35.813351 -2.661069 -11.880388 0.509860 0.057290 -0.052490 0.045530 -3.963654 -1.817800 -9.762336 18.217789 -4.450538 22.361404 -8.101674 1.364269 13.525611 5.803025 -3.190117 -23.641512 -6.502604 -12.260446 35.344184 6.843610 -17.641060 -16.339340 -18.940043 -30.294210 8.236809 -27.512838 -4.843098 -11.335416 49.524411 5.202225 -2.043933 -3.673698 3.551417 0.352590 -0.260010 0.111830 0.179130 7.339446 39.668297 16.337323 14.786054 19.300747 -12.524710 -33.109226 -10.711334 -1.622590 3.429671 -1.901654 0.061820 0.108350 -0.139600 0.044940 
-3.970940 16.125710 -1.041620 -10.793900 -15.227856 -11.130733 -15.107426 11.547696 3.064645 7.408947 -3.861908 -18.874954 -18.599745 15.487025 33.435810 0.732573 7.926974 1.776334 0.367270 0.227490 0.154300 18.484273 -8.474876 5.974398 -31.756689 7.259319 -35.711276 77.541310 -45.283099 35.884603 -2.670926 -11.917491 0.510573 0.044570 -0.027270 0.029260 -4.012258 -1.795809 -9.761097 19.201573 -4.530969 22.097695 -8.118875 1.382136 13.161856 5.838365 -3.242118 -23.317871 -6.698448 -12.314273 35.503520 6.758280 -17.868990 -16.089320 -19.243322 -29.982440 8.077642 -28.397569 -5.313767 -11.015129 48.990657 5.588665 -1.799597 -3.680929 3.501550 0.358820 -0.250540 0.094990 0.168250 7.543490 39.225727 16.219792 15.389074 18.393609 -12.007883 -32.425386 -10.011564 -1.587497 3.390243 -1.840603 0.031970 0.139410 -0.112940 0.040310 
-3.986490 16.136520 -1.008260 -10.883031 -15.347013 -10.666058 -15.104316 11.482172 3.095681 7.940696 -3.839154 -19.152289 -19.215304 15.810087 33.355823 0.726142 8.058308 1.738450 0.347920 0.192430 0.168320 18.491707 -8.478096 5.963803 -31.496797 7.345421 -35.991907 77.317820 -46.300201 36.730795 -2.684271 -12.017638 0.491647 0.039640 -0.013130 0.019120 -4.034362 -1.686405 -9.778992 19.155221 -4.223287 21.581315 -8.005548 1.479352 12.793755 5.699374 -2.557497 -23.049971 -5.452297 -12.416736 35.469057 5.868650 -17.399520 -15.100820 -19.636000 -30.040825 8.203017 -28.436994 -5.052583 -10.766653 48.541374 6.283911 -1.397235 -3.713251 3.460878 0.364270 -0.230440 0.076620 0.154290 7.986745 38.627286 15.990313 16.230274 18.174103 -11.586157 -32.233012 -9.858567 -1.529154 3.351749 -1.817498 0.001140 0.155680 -0.100840 0.018030 
-3.986770 16.163250 -0.976150 -11.165494 -15.592273 -10.508822 -15.090808 11.513639 3.076261 8.278025 -3.671516 -18.831270 -19.172934 15.732693 33.044908 0.686997 8.045679 1.751849 0.340280 0.164080 0.198670 18.492115 -8.523482 5.939216 -31.328892 7.497089 -35.522882 77.221792 -47.215178 37.413996 -2.706154 -12.076037 0.483706 0.033230 -0.009660 0.017120 -4.052982 -1.662129 -9.755064 19.694669 -4.236866 21.287886 -8.272014 1.501988 12.828025 5.909768 -2.168225 -23.109939 -4.821873 -12.390568 35.804046 4.732770 -16.882410 -14.738800 -19.752034 -29.954413 8.268036 -28.805210 -4.599269 -10.554849 47.768967 6.731570 -1.129634 -3.730851 3.407927 0.389830 -0.221490 0.079010 0.144680 7.544913 38.367240 16.074454 17.310380 17.779346 -10.859866 -31.229548 -9.035892 -1.559635 3.300896 -1.770761 -0.026310 0.176880 -0.096770 -0.007110 
-4.000160 16.195890 -0.959440 -10.779199 -15.721487 -10.791829 -15.117007 11.623165 3.060468 8.156788 -3.429676 -18.077977 -19.225752 15.515306 32.336781 0.679056 7.904846 1.774206 0.361350 0.189570 0.222680 18.435719 -8.569895 5.882428 -30.362250 8.129476 -34.089299 74.883240 -46.967317 38.949558 -2.738167 -12.175853 0.433673 0.030940 -0.052520 0.040880 -3.917841 -1.752382 -9.761660 18.587345 -3.576153 21.698491 -7.302020 1.628176 12.755311 5.813594 -1.981256 -23.322720 -4.447495 -12.115610 36.474141 4.534900 -16.247480 -15.324130 -19.701876 -29.811808 8.307848 -29.226116 -4.375260 -10.091407 46.297289 7.555295 -0.654335 -3.719797 3.424353 0.401740 -0.241060 0.112790 0.129770 7.770278 38.247288 16.249500 17.657563 17.113727 -10.651560 -30.782017 -8.735003 -1.534165 3.300818 -1.759036 0.006540 0.141190 -0.102420 -0.014140 
